<mxfile host="app.diagrams.net" modified="2021-07-07T10:10:22.000Z" agent="5.0 (Windows NT 10.0; Win64; x64) AppleWebKit/537.36 (KHTML, like Gecko) Chrome/91.0.4472.124 Safari/537.36" etag="7EPc8XsaBF7Cp8_JQhru" version="14.7.0" type="github">
  <diagram id="-GL9jUjGzBE2j5kcGxNG" name="Page-1">
    <mxGraphModel dx="2249" dy="762" grid="1" gridSize="10" guides="1" tooltips="1" connect="1" arrows="1" fold="1" page="1" pageScale="1" pageWidth="827" pageHeight="1169" math="0" shadow="0">
      <root>
        <mxCell id="0" />
        <mxCell id="1" parent="0" />
        <mxCell id="ZCt8lKtkFsK1KPISfKjg-5" style="edgeStyle=orthogonalEdgeStyle;rounded=0;orthogonalLoop=1;jettySize=auto;html=1;exitX=0.5;exitY=1;exitDx=0;exitDy=0;entryX=0.5;entryY=0;entryDx=0;entryDy=0;" edge="1" parent="1" source="ZCt8lKtkFsK1KPISfKjg-1" target="ZCt8lKtkFsK1KPISfKjg-2">
          <mxGeometry relative="1" as="geometry" />
        </mxCell>
        <mxCell id="ZCt8lKtkFsK1KPISfKjg-1" value="上电开机" style="rounded=1;whiteSpace=wrap;html=1;fontSize=12;glass=0;strokeWidth=1;shadow=0;" vertex="1" parent="1">
          <mxGeometry x="-60" y="70" width="120" height="40" as="geometry" />
        </mxCell>
        <mxCell id="ZCt8lKtkFsK1KPISfKjg-7" style="edgeStyle=orthogonalEdgeStyle;rounded=0;orthogonalLoop=1;jettySize=auto;html=1;exitX=0.25;exitY=1;exitDx=0;exitDy=0;" edge="1" parent="1" source="ZCt8lKtkFsK1KPISfKjg-2" target="ZCt8lKtkFsK1KPISfKjg-3">
          <mxGeometry relative="1" as="geometry" />
        </mxCell>
        <mxCell id="ZCt8lKtkFsK1KPISfKjg-9" style="edgeStyle=orthogonalEdgeStyle;rounded=0;orthogonalLoop=1;jettySize=auto;html=1;exitX=0.75;exitY=1;exitDx=0;exitDy=0;entryX=0.5;entryY=0;entryDx=0;entryDy=0;" edge="1" parent="1" source="ZCt8lKtkFsK1KPISfKjg-2" target="ZCt8lKtkFsK1KPISfKjg-4">
          <mxGeometry relative="1" as="geometry" />
        </mxCell>
        <mxCell id="ZCt8lKtkFsK1KPISfKjg-2" value="人员检测" style="rounded=1;whiteSpace=wrap;html=1;flipH=1;flipV=0;" vertex="1" parent="1">
          <mxGeometry x="-60" y="150" width="120" height="60" as="geometry" />
        </mxCell>
        <mxCell id="ZCt8lKtkFsK1KPISfKjg-11" style="edgeStyle=orthogonalEdgeStyle;rounded=0;orthogonalLoop=1;jettySize=auto;html=1;exitX=0;exitY=0.5;exitDx=0;exitDy=0;entryX=0;entryY=0.5;entryDx=0;entryDy=0;" edge="1" parent="1" source="ZCt8lKtkFsK1KPISfKjg-3" target="ZCt8lKtkFsK1KPISfKjg-2">
          <mxGeometry relative="1" as="geometry" />
        </mxCell>
        <mxCell id="ZCt8lKtkFsK1KPISfKjg-13" style="edgeStyle=orthogonalEdgeStyle;rounded=0;orthogonalLoop=1;jettySize=auto;html=1;exitX=0.5;exitY=1;exitDx=0;exitDy=0;entryX=0.25;entryY=0;entryDx=0;entryDy=0;" edge="1" parent="1" source="ZCt8lKtkFsK1KPISfKjg-3" target="ZCt8lKtkFsK1KPISfKjg-10">
          <mxGeometry relative="1" as="geometry" />
        </mxCell>
        <mxCell id="ZCt8lKtkFsK1KPISfKjg-3" value="雷达感应触发?" style="rhombus;whiteSpace=wrap;html=1;flipH=1;flipV=0;" vertex="1" parent="1">
          <mxGeometry x="-165" y="260" width="110" height="80" as="geometry" />
        </mxCell>
        <mxCell id="ZCt8lKtkFsK1KPISfKjg-12" style="edgeStyle=orthogonalEdgeStyle;rounded=0;orthogonalLoop=1;jettySize=auto;html=1;exitX=1;exitY=0.5;exitDx=0;exitDy=0;entryX=1;entryY=0.5;entryDx=0;entryDy=0;" edge="1" parent="1" source="ZCt8lKtkFsK1KPISfKjg-4" target="ZCt8lKtkFsK1KPISfKjg-2">
          <mxGeometry relative="1" as="geometry" />
        </mxCell>
        <mxCell id="ZCt8lKtkFsK1KPISfKjg-14" style="edgeStyle=orthogonalEdgeStyle;rounded=0;orthogonalLoop=1;jettySize=auto;html=1;exitX=0.5;exitY=1;exitDx=0;exitDy=0;entryX=0.75;entryY=0;entryDx=0;entryDy=0;" edge="1" parent="1" source="ZCt8lKtkFsK1KPISfKjg-4" target="ZCt8lKtkFsK1KPISfKjg-10">
          <mxGeometry relative="1" as="geometry" />
        </mxCell>
        <mxCell id="ZCt8lKtkFsK1KPISfKjg-4" value="脚踢开关触发?" style="rhombus;whiteSpace=wrap;html=1;flipH=1;flipV=0;" vertex="1" parent="1">
          <mxGeometry x="60" y="260" width="110" height="80" as="geometry" />
        </mxCell>
        <mxCell id="ZCt8lKtkFsK1KPISfKjg-16" style="edgeStyle=orthogonalEdgeStyle;rounded=0;orthogonalLoop=1;jettySize=auto;html=1;exitX=0.5;exitY=1;exitDx=0;exitDy=0;entryX=0.5;entryY=0;entryDx=0;entryDy=0;" edge="1" parent="1" source="ZCt8lKtkFsK1KPISfKjg-10" target="ZCt8lKtkFsK1KPISfKjg-15">
          <mxGeometry relative="1" as="geometry" />
        </mxCell>
        <mxCell id="ZCt8lKtkFsK1KPISfKjg-10" value="上盖掀起" style="rounded=1;whiteSpace=wrap;html=1;" vertex="1" parent="1">
          <mxGeometry x="-60" y="380" width="120" height="60" as="geometry" />
        </mxCell>
        <mxCell id="ZCt8lKtkFsK1KPISfKjg-24" style="edgeStyle=orthogonalEdgeStyle;rounded=0;orthogonalLoop=1;jettySize=auto;html=1;exitX=0.5;exitY=1;exitDx=0;exitDy=0;entryX=0.5;entryY=0;entryDx=0;entryDy=0;" edge="1" parent="1" source="ZCt8lKtkFsK1KPISfKjg-15" target="ZCt8lKtkFsK1KPISfKjg-23">
          <mxGeometry relative="1" as="geometry" />
        </mxCell>
        <mxCell id="ZCt8lKtkFsK1KPISfKjg-15" value="开启座圈加热" style="rounded=1;whiteSpace=wrap;html=1;" vertex="1" parent="1">
          <mxGeometry x="-60" y="470" width="120" height="60" as="geometry" />
        </mxCell>
        <mxCell id="ZCt8lKtkFsK1KPISfKjg-43" style="edgeStyle=orthogonalEdgeStyle;rounded=0;orthogonalLoop=1;jettySize=auto;html=1;exitX=0;exitY=0.5;exitDx=0;exitDy=0;" edge="1" parent="1" source="ZCt8lKtkFsK1KPISfKjg-21">
          <mxGeometry relative="1" as="geometry">
            <mxPoint x="-400" y="630" as="targetPoint" />
          </mxGeometry>
        </mxCell>
        <mxCell id="ZCt8lKtkFsK1KPISfKjg-21" value="脚踢开关触发?" style="rhombus;whiteSpace=wrap;html=1;flipH=1;flipV=0;" vertex="1" parent="1">
          <mxGeometry x="-360" y="870" width="110" height="80" as="geometry" />
        </mxCell>
        <mxCell id="ZCt8lKtkFsK1KPISfKjg-41" style="edgeStyle=orthogonalEdgeStyle;rounded=0;orthogonalLoop=1;jettySize=auto;html=1;exitX=0;exitY=0.5;exitDx=0;exitDy=0;" edge="1" parent="1" source="ZCt8lKtkFsK1KPISfKjg-22">
          <mxGeometry relative="1" as="geometry">
            <mxPoint x="-200" y="630" as="targetPoint" />
          </mxGeometry>
        </mxCell>
        <mxCell id="ZCt8lKtkFsK1KPISfKjg-22" value="着座感应触发?" style="rhombus;whiteSpace=wrap;html=1;flipH=1;flipV=0;" vertex="1" parent="1">
          <mxGeometry x="-55" y="870" width="110" height="80" as="geometry" />
        </mxCell>
        <mxCell id="ZCt8lKtkFsK1KPISfKjg-27" style="edgeStyle=orthogonalEdgeStyle;rounded=0;orthogonalLoop=1;jettySize=auto;html=1;exitX=0.5;exitY=1;exitDx=0;exitDy=0;entryX=0.5;entryY=0;entryDx=0;entryDy=0;" edge="1" parent="1" source="ZCt8lKtkFsK1KPISfKjg-23" target="ZCt8lKtkFsK1KPISfKjg-26">
          <mxGeometry relative="1" as="geometry" />
        </mxCell>
        <mxCell id="ZCt8lKtkFsK1KPISfKjg-23" value="计时5min开始" style="rounded=1;whiteSpace=wrap;html=1;" vertex="1" parent="1">
          <mxGeometry x="-60" y="560" width="120" height="60" as="geometry" />
        </mxCell>
        <mxCell id="ZCt8lKtkFsK1KPISfKjg-42" style="edgeStyle=orthogonalEdgeStyle;rounded=0;orthogonalLoop=1;jettySize=auto;html=1;exitX=0;exitY=0.5;exitDx=0;exitDy=0;" edge="1" parent="1" source="ZCt8lKtkFsK1KPISfKjg-25">
          <mxGeometry relative="1" as="geometry">
            <mxPoint x="-120" y="630" as="targetPoint" />
            <Array as="points">
              <mxPoint x="260" y="840" />
              <mxPoint x="-120" y="840" />
            </Array>
          </mxGeometry>
        </mxCell>
        <mxCell id="ZCt8lKtkFsK1KPISfKjg-25" value="雷达感应触发?" style="rhombus;whiteSpace=wrap;html=1;flipH=1;flipV=0;" vertex="1" parent="1">
          <mxGeometry x="260" y="870" width="110" height="80" as="geometry" />
        </mxCell>
        <mxCell id="ZCt8lKtkFsK1KPISfKjg-29" value="yes" style="edgeStyle=orthogonalEdgeStyle;rounded=0;orthogonalLoop=1;jettySize=auto;html=1;exitX=1;exitY=0.5;exitDx=0;exitDy=0;entryX=0;entryY=0.5;entryDx=0;entryDy=0;" edge="1" parent="1" source="ZCt8lKtkFsK1KPISfKjg-26" target="ZCt8lKtkFsK1KPISfKjg-28">
          <mxGeometry relative="1" as="geometry" />
        </mxCell>
        <mxCell id="ZCt8lKtkFsK1KPISfKjg-33" style="edgeStyle=orthogonalEdgeStyle;rounded=0;orthogonalLoop=1;jettySize=auto;html=1;exitX=0.5;exitY=1;exitDx=0;exitDy=0;entryX=0.5;entryY=0;entryDx=0;entryDy=0;" edge="1" parent="1" source="ZCt8lKtkFsK1KPISfKjg-26" target="ZCt8lKtkFsK1KPISfKjg-22">
          <mxGeometry relative="1" as="geometry" />
        </mxCell>
        <mxCell id="ZCt8lKtkFsK1KPISfKjg-35" style="edgeStyle=orthogonalEdgeStyle;rounded=0;orthogonalLoop=1;jettySize=auto;html=1;exitX=0.5;exitY=1;exitDx=0;exitDy=0;entryX=0.5;entryY=0;entryDx=0;entryDy=0;" edge="1" parent="1" source="ZCt8lKtkFsK1KPISfKjg-26" target="ZCt8lKtkFsK1KPISfKjg-21">
          <mxGeometry relative="1" as="geometry" />
        </mxCell>
        <mxCell id="ZCt8lKtkFsK1KPISfKjg-36" style="edgeStyle=orthogonalEdgeStyle;rounded=0;orthogonalLoop=1;jettySize=auto;html=1;exitX=0.5;exitY=1;exitDx=0;exitDy=0;" edge="1" parent="1" source="ZCt8lKtkFsK1KPISfKjg-26" target="ZCt8lKtkFsK1KPISfKjg-25">
          <mxGeometry relative="1" as="geometry" />
        </mxCell>
        <mxCell id="ZCt8lKtkFsK1KPISfKjg-37" value="no" style="edgeLabel;html=1;align=center;verticalAlign=middle;resizable=0;points=[];" vertex="1" connectable="0" parent="ZCt8lKtkFsK1KPISfKjg-36">
          <mxGeometry x="-0.8945" y="2" relative="1" as="geometry">
            <mxPoint as="offset" />
          </mxGeometry>
        </mxCell>
        <mxCell id="ZCt8lKtkFsK1KPISfKjg-26" value="计时时间结束?" style="rhombus;whiteSpace=wrap;html=1;flipH=1;flipV=0;" vertex="1" parent="1">
          <mxGeometry x="-55" y="650" width="110" height="80" as="geometry" />
        </mxCell>
        <mxCell id="ZCt8lKtkFsK1KPISfKjg-31" style="edgeStyle=orthogonalEdgeStyle;rounded=0;orthogonalLoop=1;jettySize=auto;html=1;exitX=1;exitY=0.5;exitDx=0;exitDy=0;entryX=0;entryY=0.5;entryDx=0;entryDy=0;" edge="1" parent="1" source="ZCt8lKtkFsK1KPISfKjg-28" target="ZCt8lKtkFsK1KPISfKjg-30">
          <mxGeometry relative="1" as="geometry" />
        </mxCell>
        <mxCell id="ZCt8lKtkFsK1KPISfKjg-28" value="关闭座圈加热" style="rounded=1;whiteSpace=wrap;html=1;" vertex="1" parent="1">
          <mxGeometry x="120" y="660" width="120" height="60" as="geometry" />
        </mxCell>
        <mxCell id="ZCt8lKtkFsK1KPISfKjg-32" style="edgeStyle=orthogonalEdgeStyle;rounded=0;orthogonalLoop=1;jettySize=auto;html=1;exitX=0.5;exitY=0;exitDx=0;exitDy=0;entryX=0.5;entryY=0;entryDx=0;entryDy=0;" edge="1" parent="1" source="ZCt8lKtkFsK1KPISfKjg-30" target="ZCt8lKtkFsK1KPISfKjg-2">
          <mxGeometry relative="1" as="geometry" />
        </mxCell>
        <mxCell id="ZCt8lKtkFsK1KPISfKjg-30" value="上盖合上" style="rounded=1;whiteSpace=wrap;html=1;" vertex="1" parent="1">
          <mxGeometry x="310" y="660" width="120" height="60" as="geometry" />
        </mxCell>
        <mxCell id="ZCt8lKtkFsK1KPISfKjg-45" value="" style="endArrow=none;html=1;" edge="1" parent="1">
          <mxGeometry width="50" height="50" relative="1" as="geometry">
            <mxPoint x="-400" y="630" as="sourcePoint" />
            <mxPoint y="630" as="targetPoint" />
          </mxGeometry>
        </mxCell>
      </root>
    </mxGraphModel>
  </diagram>
</mxfile>
